<svg width="96" height="81" viewBox="0 0 96 81" fill="none" xmlns="http://www.w3.org/2000/svg">
<path d="M80.462 45.8314V64.0039C80.462 68.5375 78.8524 72.4139 75.6332 75.6332C72.4139 78.8524 68.5375 80.4621 64.0039 80.4621H16.4581C11.9245 80.4621 8.04811 78.8524 4.82887 75.6332C1.60962 72.4139 0 68.5375 0 64.0039V16.4581C0 11.9245 1.60962 8.04811 4.82887 4.82887C8.04811 1.60962 11.9245 0 16.4581 0H64.0039C66.404 0 68.6328 0.47622 70.69 1.42866C71.2615 1.69534 71.6044 2.13346 71.7187 2.74302C71.833 3.39068 71.6615 3.9431 71.2043 4.40027L68.4042 7.20044C68.0232 7.58142 67.5851 7.7719 67.0898 7.7719C66.9755 7.7719 66.8041 7.73381 66.5755 7.65761C65.6992 7.42902 64.842 7.31473 64.0039 7.31473H16.4581C13.9437 7.31473 11.7912 8.21002 10.0006 10.0006C8.21002 11.7912 7.31473 13.9437 7.31473 16.4581V64.0039C7.31473 66.5183 8.21002 68.6709 10.0006 70.4614C11.7912 72.252 13.9437 73.1473 16.4581 73.1473H64.0039C66.5183 73.1473 68.6708 72.252 70.4614 70.4614C72.252 68.6709 73.1473 66.5183 73.1473 64.0039V49.4887C73.1473 48.9935 73.3187 48.5744 73.6616 48.2315L77.319 44.5741C77.7 44.1932 78.1381 44.0027 78.6334 44.0027C78.8619 44.0027 79.0905 44.0598 79.3191 44.1741C80.0811 44.4789 80.462 45.0313 80.462 45.8314ZM93.6628 17.8868L47.1457 64.4039C46.2314 65.3183 45.1456 65.7754 43.8884 65.7754C42.6312 65.7754 41.5454 65.3183 40.631 64.4039L16.0581 39.831C15.1438 38.9167 14.6866 37.8309 14.6866 36.5737C14.6866 35.3164 15.1438 34.2307 16.0581 33.3163L22.3442 27.0302C23.2586 26.1159 24.3443 25.6587 25.6016 25.6587C26.8588 25.6587 27.9446 26.1159 28.8589 27.0302L43.8884 42.0597L80.8621 5.08602C81.7764 4.17168 82.8622 3.71451 84.1194 3.71451C85.3766 3.71451 86.4624 4.17168 87.3767 5.08602L93.6628 11.3721C94.5772 12.2865 95.0344 13.3722 95.0344 14.6295C95.0344 15.8867 94.5772 16.9725 93.6628 17.8868Z" fill="#8685E7"/>
</svg>
